HIERARCHY
ROOT RootJoint
{
    OFFSET   0.000000   0.000000   0.000000
    CHANNELS 6 Xposition Yposition Zposition Xrotation Yrotation Zrotation
    JOINT pelvis_lowerback
    {
        OFFSET   0.000000   0.093605   0.000000
        CHANNELS 3 Xrotation Yrotation Zrotation
        JOINT lowerback_torso
        {
            OFFSET   0.000000   0.100000   0.000000
            CHANNELS 3 Xrotation Yrotation Zrotation
            JOINT torso_head
            {
                OFFSET   0.000000   0.282350   0.000000
                CHANNELS 3 Xrotation Yrotation Zrotation
                End Site
                {
                    OFFSET   0.000000   0.192650   0.000000
                }
            }
            JOINT rTorso_Clavicle
            {
                OFFSET  -0.001000   0.157500   0.000000
                CHANNELS 3 Xrotation Yrotation Zrotation
                JOINT rShoulder
                {
                    OFFSET  -0.117647   0.000000   0.000000
                    CHANNELS 3 Xrotation Yrotation Zrotation
                    JOINT rElbow
                    {
                        OFFSET  -0.245000   0.000000   0.000000
                        CHANNELS 3 Xrotation Yrotation Zrotation
                        JOINT rWrist
                        {
                            OFFSET  -0.240000   0.000000   0.000000
                            CHANNELS 3 Xrotation Yrotation Zrotation
                            End Site
                            {
                                OFFSET  -0.116353  -0.002500   0.000000
                            }
                        }
                    }
                }
            }
            JOINT lTorso_Clavicle
            {
                OFFSET   0.001000   0.157500   0.000000
                CHANNELS 3 Xrotation Yrotation Zrotation
                JOINT lShoulder
                {
                    OFFSET   0.117647   0.000000   0.000000
                    CHANNELS 3 Xrotation Yrotation Zrotation
                    JOINT lElbow
                    {
                        OFFSET   0.245000   0.000000   0.000000
                        CHANNELS 3 Xrotation Yrotation Zrotation
                        JOINT lWrist
                        {
                            OFFSET   0.240000   0.000000   0.000000
                            CHANNELS 3 Xrotation Yrotation Zrotation
                            End Site
                            {
                                OFFSET   0.116353  -0.002500   0.000000
                            }
                        }
                    }
                }
            }
        }
    }
    JOINT rHip
    {
        OFFSET  -0.100000  -0.051395   0.000000
        CHANNELS 3 Xrotation Yrotation Zrotation
        JOINT rKnee
        {
            OFFSET   0.000000  -0.410000   0.000000
            CHANNELS 3 Xrotation Yrotation Zrotation
            JOINT rAnkle
            {
                OFFSET   0.000000  -0.390000   0.000000
                CHANNELS 3 Xrotation Yrotation Zrotation
                JOINT rToeJoint
                {
                    OFFSET   0.000000  -0.050000   0.130000
                    CHANNELS 3 Xrotation Yrotation Zrotation
                    End Site
                    {
                        OFFSET  -0.010000   0.002000   0.060000
                    }
                }
            }
        }
    }
    JOINT lHip
    {
        OFFSET   0.100000  -0.051395   0.000000
        CHANNELS 3 Xrotation Yrotation Zrotation
        JOINT lKnee
        {
            OFFSET   0.000000  -0.410000   0.000000
            CHANNELS 3 Xrotation Yrotation Zrotation
            JOINT lAnkle
            {
                OFFSET   0.000000  -0.390000   0.000000
                CHANNELS 3 Xrotation Yrotation Zrotation
                JOINT lToeJoint
                {
                    OFFSET   0.000000  -0.050000   0.130000
                    CHANNELS 3 Xrotation Yrotation Zrotation
                    End Site
                    {
                        OFFSET   0.010000   0.002000   0.060000
                    }
                }
            }
        }
    }
}
MOTION
Frames: 14
Frame Time:   0.008333
 -2.376719   0.925631   3.975860   0.000000   0.000000   0.000000   0.000000   0.000000   0.000000   0.000000   0.000000   0.000000   0.000000   0.000000   0.000000   0.000000   0.000000   0.000000   0.000000   0.000000   0.000000   0.000000   0.000000   0.000000   0.000000   0.000000   0.000000   0.000000   0.000000   0.000000   0.000000   0.000000   0.000000   0.000000   0.000000   0.000000   0.000000   0.000000   0.000000   0.000000   0.000000   0.000000   0.000000   0.000000   0.000000   0.000000   0.000000   0.000000   0.000000   0.000000   0.000000   0.000000   0.000000   0.000000   0.000000   0.000000   0.000000   0.000000   0.000000   0.000000   0.000000   0.000000   0.000000
 -2.376005   0.925672   3.970756  -0.056635   0.086962   0.131440   1.138404  -0.026305   0.145769  -0.251758  -0.181817  -0.231187  -0.684954   0.066923   0.055154  -0.245141   0.037788   0.444124  -1.568539   0.908208   0.933792   0.039169   3.237571   0.026599  -0.168203  -2.983347  -2.028903  -0.497493  -0.187569  -0.427815  -1.748089   0.031008  -1.154073   0.043877  -3.340904  -0.039862  -0.175172   2.311103   2.166529  -1.478200  -0.063647  -0.481119   3.410373   0.010357   0.000145  -2.218136  -0.043029   0.823066   0.341691  -0.001419  -0.000051  -2.009069   0.272541  -0.008346   3.894242  -0.003651   0.012265  -1.754350   0.138073  -0.334584   0.040168   0.000073   0.000173
 -2.375095   0.925550   3.963879  -0.412544   0.126306   0.272577   2.606756  -0.002968   0.332581  -0.168132  -0.314671  -0.454165  -1.307853   0.124989   0.115711  -0.495878   0.611853   1.322319  -3.083644   2.205628   2.175627   0.096292   6.716827   0.035918  -0.407423  -4.694511  -3.668347  -0.984741  -0.828882  -1.372643  -3.413660  -0.309843  -2.646036   0.104238  -6.895130  -0.058418  -0.418506   3.436109   3.815760  -2.850541  -0.105609  -1.199168   7.122312   0.026686  -0.003257  -4.276360  -0.115949   1.589621   0.629567  -0.001622  -0.000299  -4.166155   0.547727   0.144094   8.061463  -0.010897   0.022354  -3.372119   0.284098  -0.640344   0.095202   0.000078   0.000362
 -2.374141   0.924960   3.956015  -0.907500   0.114609   0.403752   4.217483   0.073052   0.532824   0.113391  -0.392512  -0.651524  -1.876689   0.178287   0.179640  -0.752177   1.555138   2.447247  -4.545786   3.698976   3.595959   0.160210  10.319241   0.034187  -0.625371  -5.552312  -4.793648  -1.462156  -1.780267  -2.607076  -4.991097  -0.863672  -4.313079   0.169085 -10.559577  -0.062419  -0.633916   3.818750   4.871108  -4.121582  -0.125540  -2.075770  10.852075   0.044581  -0.010826  -6.192992  -0.214012   2.301626   0.901269  -0.001237  -0.000747  -6.413705   0.794441   0.463018  12.171828  -0.020315   0.029730  -4.880744   0.431892  -0.919365   0.152103   0.000006   0.000497
 -2.373210   0.923718   3.947702  -1.466682   0.063676   0.521710   5.888553   0.192328   0.733697   0.508367  -0.425326  -0.825885  -2.404019   0.227755   0.243377  -1.024981   2.730294   3.696762  -5.963472   5.277585   5.114046   0.224176  14.002951   0.026260  -0.806172  -5.856776  -5.518428  -1.943286  -2.915923  -3.985967  -6.488568  -1.526888  -6.057343   0.231537 -14.295727  -0.057712  -0.811711   3.740611   5.488492  -5.267597  -0.122196  -3.067723  14.423187   0.060718  -0.021172  -7.978738  -0.331390   2.962291   1.151514  -0.000557  -0.001291  -8.729978   1.001530   0.928214  16.193769  -0.030693   0.035849  -6.291405   0.579208  -1.174195   0.196638  -0.000089   0.000549
 -2.372334   0.921708   3.939333  -2.050494  -0.026667   0.626841   7.569761   0.350329   0.927645   0.967503  -0.418563  -0.981455  -2.895018   0.273764   0.304859  -1.320611   4.037819   4.997447  -7.341530   6.868495   6.678225   0.284173  17.740890   0.015469  -0.952371  -5.807424  -5.952762  -2.434775  -4.142266  -5.423403  -7.911579  -2.229090  -7.818123   0.287722 -18.077930  -0.048461  -0.958418   3.384962   5.803848  -6.283365  -0.095084  -4.144476  17.770781   0.073432  -0.032915  -9.643593  -0.462847   3.574900   1.376985   0.000209  -0.001855 -11.084923   1.162161   1.515217  20.134367  -0.041091   0.041351  -7.610671   0.724582  -1.406999   0.229603  -0.000171   0.000545
 -2.371525   0.918853   3.931190  -2.639028  -0.157125   0.721258   9.229346   0.542221   1.109313   1.460891  -0.376619  -1.122201  -3.352153   0.316551   0.363218  -1.640184   5.406003   6.308108  -8.681588   8.423398   8.256864   0.338013  21.514708   0.004078  -1.072746  -5.541246  -6.176143  -2.936885  -5.392354  -6.870536  -9.262947  -2.923421  -9.558858   0.335708 -21.888630  -0.037525  -1.084418   2.875605   5.911932  -7.177666  -0.045472  -5.283211  20.903320   0.082376  -0.044984 -11.196410  -0.604031   4.142619   1.577801   0.000932  -0.002385 -13.445475   1.271573   2.198713  24.007276  -0.050846   0.046510  -8.844225   0.866772  -1.619787   0.253013  -0.000226   0.000508
 -2.371445   0.914671   3.922526  -2.823091  -0.340386   0.638684  10.567872   0.717955   1.235255   1.986869  -0.192758  -1.126069  -3.816514   0.422317   0.486761  -1.945312   6.657044   7.219667 -10.045841  10.108068   9.668479   0.366274  25.280432  -0.012327  -1.209031  -5.316037  -5.538131  -3.439912  -6.557552  -7.870504 -11.346138  -3.747828 -11.227304   0.349940 -25.658315  -0.050165  -1.285842   2.596360   5.347583  -8.611216  -0.065768  -6.249001  24.082099   0.087178  -0.060627 -12.573792  -0.827381   4.858339   1.637905   0.000883  -0.002316 -16.138569   1.037084   3.286985  27.169957  -0.063635   0.044534  -9.614006   1.155627  -1.875827   0.433772  -0.001232   0.000847
 -2.371715   0.909357   3.913988  -2.962231  -0.521533   0.533209  11.914124   0.891407   1.298645   2.510046  -0.000312  -1.138048  -4.235105   0.524090   0.608605  -2.282227   7.906563   7.902885 -11.379638  11.731311  10.916847   0.380607  29.075963  -0.030752  -1.322042  -4.989203  -4.984634  -3.965003  -7.717310  -8.620947 -13.339675  -4.541065 -12.685703   0.350404 -29.455316  -0.056955  -1.486468   2.257819   4.948818 -10.006315  -0.063147  -7.230636  27.041089   0.088859  -0.072984 -13.856669  -1.053553   5.521378   1.690679   0.000861  -0.002226 -18.784120   0.697037   4.539229  29.970807  -0.074786   0.044884 -10.332830   1.432426  -2.107807   0.623241  -0.002371   0.001196
 -2.372181   0.903016   3.905873  -3.078482  -0.693253   0.437649  13.228116   1.059475   1.309625   3.021819   0.186227  -1.179299  -4.608248   0.618328   0.719380  -2.641921   9.120831   8.433083 -12.679301  13.271380  12.048148   0.386610  32.891225  -0.048264  -1.409925  -4.575534  -4.599966  -4.495646  -8.840889  -9.212679 -15.236421  -5.284307 -13.994192   0.342987 -33.271015  -0.061359  -1.660326   1.837866   4.727667 -11.307073  -0.026648  -8.257845  29.790297   0.088513  -0.081946 -15.052870  -1.279486   6.134430   1.735172   0.000849  -0.002099 -21.339069   0.281536   5.867032  32.517204  -0.083267   0.046919 -11.005402   1.695965  -2.319320   0.793169  -0.003301   0.001500
 -2.372762   0.895726   3.898344  -3.176111  -0.849816   0.356486  14.480321   1.222091   1.280138   3.504164   0.366848  -1.248293  -4.942232   0.705173   0.820688  -3.018212  10.294125   8.861156 -13.943560  14.734190  13.097973   0.382783  36.486637  -0.061834  -1.471545  -4.012088  -4.337192  -5.023578  -9.920188  -9.707577 -17.036105  -5.975547 -15.197567   0.329480 -37.021316  -0.065684  -1.811150   1.331881   4.612544 -12.499000   0.041142  -9.322904  32.352060   0.086744  -0.087905 -16.167942  -1.503062   6.701006   1.773760   0.000839  -0.001955 -23.781463  -0.197319   7.225660  34.855373  -0.088831   0.049748 -11.634035   1.945853  -2.512700   0.945013  -0.003985   0.001756
 -2.373410   0.887542   3.891481  -3.257673  -0.992798   0.288704  15.655703   1.374807   1.220995   3.947657   0.535873  -1.338370  -5.245390   0.785932   0.912721  -3.399039  11.412726   9.224273 -15.166771  16.106302  14.089464   0.372130  39.856482  -0.071042  -1.520413  -3.392281  -4.151916  -5.542830 -10.950916 -10.142321 -18.740043  -6.616375 -16.322624   0.309773 -40.541229  -0.070176  -1.941919   0.722898   4.549392 -13.581004   0.135819 -10.410720  34.745337   0.083896  -0.091387 -17.207159  -1.722494   7.224624   1.807930   0.000828  -0.001808 -26.097832  -0.728095   8.586228  37.013935  -0.091654   0.052609 -12.221396   2.182126  -2.689783   1.080407  -0.004429   0.001953
 -2.374089   0.878508   3.885299  -3.326223  -1.124266   0.231779  16.750114   1.515912   1.140295   4.352049   0.692129  -1.443400  -5.524597   0.860909   0.996994  -3.773906  12.464333   9.546306 -16.344181  17.380568  15.035978   0.356864  43.009625  -0.076378  -1.563347  -2.760851  -4.013830  -6.043954 -11.920856 -10.539646 -20.346862  -7.195293 -17.382801   0.286011 -43.833909  -0.074996  -2.062190   0.091235   4.514387 -14.557817   0.252033 -11.505585  36.984957   0.080215  -0.092845 -18.175577  -1.936420   7.708610   1.838624   0.000812  -0.001664 -28.281772  -1.299866   9.927642  39.014289  -0.092093   0.055008 -12.770085   2.405014  -2.852133   1.201014  -0.004660   0.002086
 -2.374780   0.868571   3.879859  -3.301320  -1.376611   0.228645  17.665137   1.629038   0.884579   4.712752   0.835012  -1.447946  -5.801337   0.853705   1.017139  -4.122588  13.490696   9.542083 -17.617157  18.484702  15.917556   0.332364  46.357769  -0.076398  -1.605529  -2.394445  -3.369587  -6.449676 -12.718038 -10.595151 -21.997166  -7.564186 -18.342867   0.249981 -47.086552  -0.083392  -2.205465  -0.285226   4.042375 -15.444971   0.485232 -12.590953  38.714389   0.073562  -0.089551 -19.031094  -2.007049   8.078938   1.956785   0.001305  -0.002007 -30.123053  -1.848264  11.223428  40.289743  -0.085831   0.051231 -12.928323   2.536426  -3.130147   1.290155  -0.004466   0.001908
